Coordinates
version=1
nRows=24
nColumns=38
inDegrees=no

Units are S.I. units (second, meters, Newtons, ...)
If the header above contains a line with 'inDegrees', this indicates whether rotational values are in degrees (yes) or radians (no).

endheader
time	pelvis_tilt	pelvis_list	pelvis_rotation	pelvis_tx	pelvis_ty	pelvis_tz	hip_flexion_r	hip_adduction_r	hip_rotation_r	knee_angle_r	ankle_angle_r	subtalar_angle_r	mtp_angle_r	hip_flexion_l	hip_adduction_l	hip_rotation_l	knee_angle_l	ankle_angle_l	subtalar_angle_l	mtp_angle_l	lumbar_extension	lumbar_bending	lumbar_rotation	arm_flex_r	arm_add_r	arm_rot_r	elbow_flex_r	pro_sup_r	wrist_flex_r	wrist_dev_r	arm_flex_l	arm_add_l	arm_rot_l	elbow_flex_l	pro_sup_l	wrist_flex_l	wrist_dev_l
0	1.91891	1.41737	-0.414931	0.733766	-0.670527	0.994831	0.313209	0.0970746	-0.375407	0.183852	-0.0216061	0	0	-0.23857	-0.195749	-0.266644	0.408712	0.290975	0	0	-0.367692	0.125593	0.145295	0.100947	-0.23985	0.134172	0.302873	1.18896	0	0	0.190625	-0.20345	0.406107	0.307006	1.33662	0	0
0.01	2.11963	1.42617	-0.606197	0.735702	-0.657031	0.995387	0.291587	0.0700199	-0.380061	0.216173	-0.0146144	0	0	-0.264734	-0.178505	-0.259078	0.421276	0.278406	0	0	-0.378638	0.105113	0.133612	0.0882357	-0.233606	0.131786	0.306612	1.1926	0	0	0.182659	-0.211904	0.416501	0.312352	1.33511	0	0
0.02	2.1653	1.41988	-0.639703	0.737701	-0.644424	0.994966	0.272102	0.0723659	-0.383431	0.21451	-0.0482055	0	0	-0.271619	-0.189606	-0.250533	0.445847	0.272225	0	0	-0.378681	0.111239	0.126289	0.0754499	-0.232232	0.129062	0.311071	1.19433	0	0	0.175517	-0.213164	0.415503	0.310838	1.33759	0	0
0.03	2.21126	1.36029	-0.659663	0.738175	-0.632635	0.999982	0.192191	0.125419	-0.396227	0.15363	-0.134051	0	0	-0.311916	-0.249323	-0.243347	0.468793	0.256274	0	0	-0.423784	0.166461	0.123314	0.0721176	-0.240953	0.127909	0.319293	1.1968	0	0	0.178307	-0.203538	0.411907	0.303955	1.3385	0	0
0.04	2.16392	1.42139	-0.625499	0.742641	-0.621218	0.993724	0.277401	0.0634502	-0.398356	0.256921	-0.105557	0	0	-0.250415	-0.207522	-0.231431	0.517968	0.250089	0	0	-0.364178	0.115845	0.119964	0.0531104	-0.22687	0.10824	0.319156	1.20616	0	0	0.162395	-0.216189	0.412902	0.309053	1.34591	0	0
0.05	2.00014	1.45106	-0.401939	0.736687	-0.608131	0.989923	0.325182	0.00475152	-0.484454	0.321922	-0.0789477	0	0	-0.174033	-0.201023	-0.140587	0.581082	0.241092	0	0	-0.306715	0.128176	0.0567014	0.0314543	-0.229954	0.101528	0.324046	1.20645	0	0	0.142867	-0.207851	0.397447	0.302595	1.34833	0	0
0.06	1.99375	1.44942	-0.391757	0.738746	-0.597581	0.990486	0.331838	-0.00199641	-0.4896	0.35941	-0.0713832	0	0	-0.152258	-0.209524	-0.127298	0.631361	0.212005	0	0	-0.304384	0.132937	0.0547176	0.0257803	-0.230711	0.104606	0.329733	1.20132	0	0	0.136653	-0.208737	0.400839	0.307637	1.33632	0	0
0.07	1.96266	1.44837	-0.35886	0.740943	-0.587415	0.990843	0.33958	-0.00414836	-0.487567	0.389866	-0.0651262	0	0	-0.123367	-0.217769	-0.113515	0.686453	0.178997	0	0	-0.299365	0.137692	0.0534581	0.0221958	-0.231967	0.111151	0.332793	1.19558	0	0	0.130513	-0.210174	0.405373	0.31379	1.32398	0	0
0.08	1.91621	1.44693	-0.312313	0.74333	-0.577697	0.990969	0.345954	-0.00105474	-0.481817	0.411126	-0.0615714	0	0	-0.0892636	-0.225582	-0.0982272	0.745378	0.1426	0	0	-0.293342	0.142599	0.053043	0.0207332	-0.23304	0.116825	0.334315	1.19116	0	0	0.12575	-0.211722	0.408527	0.318535	1.31647	0	0
0.09	1.76834	1.44255	-0.164008	0.745354	-0.568055	0.989257	0.363321	0.00815559	-0.479905	0.428884	-0.05342	0	0	-0.0482454	-0.233935	-0.0756665	0.795552	0.114847	0	0	-0.271741	0.154478	0.051752	0.0158369	-0.236406	0.116979	0.336915	1.19976	0	0	0.119044	-0.209303	0.399756	0.31687	1.32607	0	0
0.1	1.78438	1.44351	-0.177251	0.747817	-0.559256	0.990404	0.353819	0.0111067	-0.477466	0.431648	-0.0475114	0	0	-0.0066331	-0.235698	-0.053999	0.868343	0.0727474	0	0	-0.275892	0.153072	0.0470658	0.0205327	-0.233902	0.117685	0.335094	1.20103	0	0	0.120576	-0.212678	0.399421	0.316116	1.32698	0	0
0.11	1.58677	1.43416	0.0269336	0.74921	-0.55062	0.987675	0.374912	0.0234014	-0.483505	0.436897	-0.0394556	0	0	0.0599823	-0.244187	-0.019607	0.936451	0.0461427	0	0	-0.244749	0.16899	0.039204	0.014835	-0.238612	0.120591	0.340717	1.20367	0	0	0.114766	-0.212121	0.406588	0.316443	1.32363	0	0
0.12	1.54993	1.42761	0.0675417	0.750771	-0.541574	0.987429	0.370458	0.0334968	-0.486035	0.434401	-0.0325147	0	0	0.0884054	-0.24475	0.00457414	0.974079	0.0267597	0	0	-0.236952	0.177466	0.0347114	0.012471	-0.24145	0.122992	0.346061	1.2047	0	0	0.113	-0.212573	0.412162	0.316367	1.32144	0	0
0.13	1.56555	1.42076	0.0578576	0.752922	-0.532924	0.988738	0.355805	0.0463829	-0.487395	0.425953	-0.0279952	0	0	0.127274	-0.254055	0.0177433	1.02187	-0.0440366	0	0	-0.23905	0.184962	0.0294483	0.0131912	-0.241053	0.124541	0.351301	1.20516	0	0	0.114157	-0.215659	0.419196	0.317994	1.31761	0	0
0.14	1.55841	1.41729	0.0746209	0.755228	-0.525385	0.989612	0.356382	0.0478365	-0.506361	0.444189	-0.0225095	0	0	0.169204	-0.256502	0.0524764	1.08645	0.0203563	0	0	-0.238154	0.188902	0.0228421	0.0140066	-0.240931	0.124849	0.356665	1.20565	0	0	0.118127	-0.217666	0.423067	0.319573	1.3133	0	0
0.15	1.58466	1.41322	0.0528568	0.756746	-0.516974	0.991288	0.340092	0.0560694	-0.506438	0.438751	-0.0133701	0	0	0.195466	-0.254607	0.0719373	1.12705	0.0353248	0	0	-0.24155	0.194058	0.0192545	0.0111644	-0.246751	0.154833	0.372404	1.15973	0	0	0.113883	-0.234046	0.508555	0.349485	1.18933	0	0
0.16	1.59029	1.41575	0.04302	0.757149	-0.508265	0.993214	0.320017	0.0600512	-0.484762	0.41915	-0.000526987	0	0	0.218102	-0.233146	0.0856416	1.16425	0.0436612	0	0	-0.242942	0.193038	0.0185848	0.0145216	-0.248473	0.157793	0.374251	1.1543	0	0	0.112173	-0.233232	0.509152	0.350695	1.18335	0	0
0.17	1.66213	1.41386	-0.028103	0.760256	-0.499694	0.99589	0.294481	0.0755628	-0.473229	0.407034	-0.00171695	0	0	0.229571	-0.247304	0.0812062	1.16859	-0.000362028	0	0	-0.255676	0.192338	0.0208361	0.0229032	-0.23892	0.121437	0.359602	1.20308	0	0	0.117375	-0.226062	0.452534	0.335695	1.2503	0	0
0.18	1.68965	1.41502	-0.0590039	0.762173	-0.491774	0.9981	0.275535	0.0795941	-0.469706	0.396629	0.00101693	0	0	0.248941	-0.242075	0.0845524	1.18981	0.0082779	0	0	-0.262167	0.189937	0.0241967	0.028829	-0.237772	0.123089	0.35553	1.20025	0	0	0.11914	-0.226314	0.446798	0.337888	1.24883	0	0
0.19	1.68837	1.41715	-0.063231	0.764058	-0.483991	0.999741	0.262534	0.0823441	-0.467099	0.388806	0.00699143	0	0	0.272386	-0.236161	0.0865436	1.20731	0.0140665	0	0	-0.263527	0.186581	0.029948	0.0313628	-0.239255	0.133784	0.357141	1.1854	0	0	0.119112	-0.231851	0.474141	0.349389	1.20681	0	0
0.2	1.80611	1.41889	-0.187301	0.766288	-0.475796	1.0036	0.223394	0.0876752	-0.460134	0.366474	0.00738351	0	0	0.275245	-0.22999	0.0855989	1.21795	0.0116804	0	0	-0.286975	0.179853	0.0368979	0.0429018	-0.235329	0.13027	0.346535	1.19218	0	0	0.124345	-0.22855	0.438788	0.345552	1.24381	0	0
0.21	1.84077	1.40891	-0.237179	0.768506	-0.466172	1.00498	0.19417	0.106634	-0.448781	0.345518	0.0103204	0	0	0.285168	-0.233504	0.088805	1.23047	0.0213272	0	0	-0.293907	0.186627	0.0552244	0.0417374	-0.240435	0.135032	0.346682	1.18872	0	0	0.121017	-0.226293	0.440107	0.351106	1.24232	0	0
0.22	1.98884	1.3935	-0.448054	0.778346	-0.459594	1.01032	0.141578	0.139997	-0.373686	0.317661	-0.00230477	0	0	0.249452	-0.265147	0.0238245	1.21842	0.0243504	0	0	-0.344828	0.166818	0.122031	0.0571693	-0.235278	0.142283	0.343633	1.18434	0	0	0.132487	-0.235377	0.443679	0.360311	1.24153	0	0
0.23	1.92936	1.42107	-0.330705	0.772583	-0.452158	1.01021	0.151712	0.103079	-0.442078	0.31482	0.0167729	0	0	0.310969	-0.218668	0.0743143	1.21709	0.0257391	0	0	-0.315418	0.165425	0.0608971	0.0616958	-0.2313	0.123214	0.332465	1.20663	0	0	0.134584	-0.232443	0.442127	0.356007	1.23958	0	0
